{"title":"Lootera 2013 Hindi 720p DVDRip x264 AC3-5.1 ESubs-MAFIAKING","uid":8941990,"size":1276887374,"categoryP":"video","categoryS":"hd___movies","magnet":"?xt=urn:btih:efa5440c9b4029cbd0c50ddf1c6cfff9a95a9d1d&amp;dn=Lootera+2013+Hindi+720p+DVDRip+x264+AC3-5.1+ESubs-MAFIAKING&amp;tr=udp%3A%2F%2Ftracker.openbittorrent.com%3A80&amp;tr=udp%3A%2F%2Fopen.demonii.com%3A1337&amp;tr=udp%3A%2F%2Ftracker.coppersurfer.tk%3A6969&amp;tr=udp%3A%2F%2Fexodus.desync.com%3A6969","seeders":7,"leechers":2,"uploader":"HeroMaster","files":-1,"time":1379685077,"description":"Lootera 2013 Hindi 720p DVDRip x264 AC3-5.1 ESubs-MAFIAKING\n\n\nInformation:\n\n\nGeneral\nComplete name : Lootera (2013) 720p DVDRip x264 - Hindi - AC3 - 5.1 - ESubs - Mafiaking.mkv\nFormat : Matroska\nFormat version : Version 4 / Version 2\nFile size : 1.18 GiB\nDuration : 2h 20mn\nOverall bit rate : 1 200 Kbps\nMovie name : Lootera (2013) 720p DVDRip x264 - Hindi - AC3 - 5.1 - ESubs - Mafiaking\nEncoded date : UTC 2013-09-20 07:59:51\nWriting application : mkvmerge v6.1.0 ('Old Devil') built on Mar 2 2013 14:32:37\nWriting library : libebml v1.3.0 + libmatroska v1.4.0\n\n\nVideo\nID : 1\nFormat : AVC\nFormat/Info : Advanced Video Codec\nFormat profile : &lt;a class=&quot;__cf_email__&quot; href=&quot;/cdn-cgi/l/email-protection&quot; data-cfemail=&quot;4800212f2008047b6679&quot;&gt;[email&amp;#160;protected]&lt;/a&gt;&lt;script cf-hash='f9e31' type=&quot;text/javascript&quot;&gt;\n/* &lt;![CDATA[ */!function(){try{var t=&quot;currentScript&quot;in document?document.currentScript:function(){for(var t=document.getElementsByTagName(&quot;script&quot;),e=t.length;e--;)if(t[e].getAttribute(&quot;cf-hash&quot;))return t[e]}();if(t&amp;&amp;t.previousSibling){var e,r,n,i,c=t.previousSibling,a=c.getAttribute(&quot;data-cfemail&quot;);if(a){for(e=&quot;&quot;,r=parseInt(a.substr(0,2),16),n=2;a.length-n;n+=2)i=parseInt(a.substr(n,2),16)^r,e+=String.fromCharCode(i);e=document.createTextNode(e),c.parentNode.replaceChild(e,c)}}}catch(u){}}();/* ]]&gt; */&lt;/script&gt;\nFormat settings, CABAC : Yes\nFormat settings, ReFrames : 5 frames\nCodec ID : V_MPEG4/ISO/AVC\nDuration : 2h 20mn\nBit rate : 1 040 Kbps\nWidth : 1 280 pixels\nHeight : 544 pixels\nDisplay aspect ratio : 2.35:1\nFrame rate mode : Constant\nFrame rate : 23.976 fps\nColor space : YUV\nChroma subsampling : 4:2:0\nBit depth : 8 bits\nScan type : Progressive\nBits/(Pixel*Frame) : 0.062\nStream size : 1 022 MiB (85%)\nTitle : Mafiaking\n\nLanguage : Hindi\nDefault : Yes\nForced : No\n\n\nAudio\nID : 2\nFormat : AC-3\nFormat/Info : Audio Coding 3\nMode extension : CM (complete main)\nFormat settings, Endianness : Big\nCodec ID : A_AC3\nDuration : 2h 20mn\nBit rate mode : Constant\nBit rate : 160 Kbps\nChannel(s) : 6 channels\nChannel positions : Front: L C R, Side: L R, LFE\nSampling rate : 48.0 KHz\nBit depth : 16 bits\nCompression mode : Lossy\nStream size : 161 MiB (13%)\nTitle : Mafiaking\nLanguage : Hindi\nDefault : Yes\nForced : No\n\n\nIMDB: http://www.imdb.com/title/tt2224317/\n\n\nSubtitles and Sample Included.\n\n\nPoster:\n\n &lt;a href=&quot;\nhttp://i.imgur.com/NhmVeRx.jpg&quot; rel=&quot;nofollow&quot; target=&quot;_NEW&quot;&gt;\nhttp://i.imgur.com/NhmVeRx.jpg&lt;/a&gt;\n\n\nScreenshots:\n\n &lt;a href=&quot;\nhttp://i.imgur.com/gjYydmc.jpg&quot; rel=&quot;nofollow&quot; target=&quot;_NEW&quot;&gt;\nhttp://i.imgur.com/gjYydmc.jpg&lt;/a&gt;\n\n &lt;a href=&quot;\nhttp://i.imgur.com/yTWh8U3.jpg&quot; rel=&quot;nofollow&quot; target=&quot;_NEW&quot;&gt;\nhttp://i.imgur.com/yTWh8U3.jpg&lt;/a&gt;\n\n &lt;a href=&quot;\nhttp://i.imgur.com/ahPi7sD.jpg&quot; rel=&quot;nofollow&quot; target=&quot;_NEW&quot;&gt;\nhttp://i.imgur.com/ahPi7sD.jpg&lt;/a&gt;\n\n\nSEED AND ENJOY!","torrent":{"xt":"urn:btih:efa5440c9b4029cbd0c50ddf1c6cfff9a95a9d1d","amp;dn":"Lootera+2013+Hindi+720p+DVDRip+x264+AC3-5.1+ESubs-MAFIAKING","amp;tr":["udp%3A%2F%2Ftracker.openbittorrent.com%3A80","udp%3A%2F%2Fopen.demonii.com%3A1337","udp%3A%2F%2Ftracker.coppersurfer.tk%3A6969","udp%3A%2F%2Fexodus.desync.com%3A6969"],"infoHash":"efa5440c9b4029cbd0c50ddf1c6cfff9a95a9d1d","infoHashBuffer":{"type":"Buffer","data":[239,165,68,12,155,64,41,203,208,197,13,223,28,108,255,249,169,90,157,29]},"announce":[],"urlList":[]}}